<?xml version="1.0" encoding="UTF-8" standalone="no"?>
<svg
   viewBox="0 0 152 34"
   fill-rule="evenodd"
   stroke-linejoin="round"
   stroke-miterlimit="2"
   version="1.1"
   id="svg2"
   sodipodi:docname="logo.svg"
   inkscape:version="1.3 (0e150ed, 2023-07-21)"
   inkscape:export-filename="logo.svg"
   inkscape:export-xdpi="96"
   inkscape:export-ydpi="96"
   xmlns:inkscape="http://www.inkscape.org/namespaces/inkscape"
   xmlns:sodipodi="http://sodipodi.sourceforge.net/DTD/sodipodi-0.dtd"
   xmlns="http://www.w3.org/2000/svg"
   xmlns:svg="http://www.w3.org/2000/svg">
  <defs
     id="defs2" />
  <sodipodi:namedview
     id="namedview2"
     pagecolor="#ffffff"
     bordercolor="#000000"
     borderopacity="0.25"
     inkscape:showpageshadow="2"
     inkscape:pageopacity="0.0"
     inkscape:pagecheckerboard="0"
     inkscape:deskcolor="#d1d1d1"
     inkscape:zoom="1.8552632"
     inkscape:cx="75.730496"
     inkscape:cy="16.978723"
     inkscape:window-width="1392"
     inkscape:window-height="942"
     inkscape:window-x="403"
     inkscape:window-y="25"
     inkscape:window-maximized="0"
     inkscape:current-layer="svg2" />
  <path
     style="font-weight:bold;font-size:24px;font-family:'.SF Compact Rounded';-inkscape-font-specification:'.SF Compact Rounded Bold';fill:#0064ce;stroke-width:1.07214"
     d="m 11.784731,27.975934 q 0.6659,0 1.080518,-0.439746 0.414615,-0.427181 0.414615,-1.067952 0,-0.301539 -0.10051,-0.590515 -0.08795,-0.301539 -0.402053,-0.753849 L 12.23704,24.35746 q 0.980004,-0.96744 1.495133,-2.399753 0.527695,-1.444877 0.527695,-3.354627 v -2.173598 q 0,-2.450008 -0.892054,-4.221552 Q 12.475759,10.436385 10.817291,9.494074 9.1713885,8.5391988 6.8721499,8.5391988 q -2.311803,0 -3.9702703,0.9548752 -1.6459032,0.942311 -2.53795772,2.713856 -0.87949027,1.75898 -0.87949027,4.221552 v 2.173598 q 0,3.631039 1.93487859,5.704123 1.9474431,2.073084 5.4528397,2.073084 0.6910278,0 1.3066713,-0.10051 0.6282068,-0.10051 1.1810292,-0.288975 l 0.5528225,0.766413 q 0.8417981,1.218723 1.8720581,1.218723 z M 3.1280337,18.791542 v -2.387188 q 0,-1.507697 0.439746,-2.588214 0.4523092,-1.09308 1.2941068,-1.671031 0.8543619,-0.590515 2.0102634,-0.590515 1.1056449,0 1.9474425,0.590515 0.8543619,0.577951 1.3192356,1.671031 0.477437,1.080517 0.477437,2.588214 v 2.387188 q 0,0.980004 -0.201027,1.658468 -0.188461,0.6659 -0.5402573,1.193594 Q 9.7744679,21.492834 9.66139,21.342064 9.5483134,21.191295 9.4478002,21.040525 9.1839529,20.726421 8.8949778,20.600779 8.618566,20.462574 8.3170266,20.462574 q -0.6030791,0 -0.9925674,0.389488 -0.376925,0.376925 -0.376925,0.967439 0,0.263848 0.087947,0.527695 0.1005128,0.263847 0.251283,0.502566 0.087947,0.125641 0.188462,0.263847 0.1005127,0.125642 0.1884618,0.251282 -0.2135907,0.08795 -0.4523093,0.138207 -0.2387185,0.05025 -0.4900014,0.05025 Q 5.6031687,23.503098 4.7864989,22.937705 3.9823935,22.359755 3.555213,21.304366 3.1280316,20.248978 3.1280316,18.791536 Z m 12.2500433,7.36259 q 0.728721,0 1.155902,-0.402052 0.439745,-0.402053 0.716156,-1.356928 l 0.866926,-2.638471 h 5.942842 l 0.866925,2.638471 q 0.276412,0.929746 0.716156,1.344364 0.452309,0.414616 1.181031,0.414616 0.791541,0 1.256414,-0.427181 0.477437,-0.427181 0.477437,-1.143337 0,-0.540258 -0.288975,-1.419749 L 24.110159,11.17767 Q 23.682978,9.8709983 23.004514,9.3056118 22.32605,8.727661 21.157585,8.727661 q -1.155902,0 -1.846931,0.5779508 -0.678462,0.5653865 -1.118208,1.8720582 l -4.158734,11.986195 q -0.175896,0.527695 -0.251282,0.866926 -0.07538,0.339232 -0.07538,0.615644 0,0.678463 0.464874,1.093081 0.464872,0.414616 1.206158,0.414616 z m 3.530525,-7.073614 2.110776,-6.797204 h 0.175899 l 2.085647,6.797204 z m 8.75721,-0.653335 q 0,3.794371 1.884622,5.88002 1.884622,2.073084 5.364891,2.073084 1.557954,0 2.814369,-0.414617 1.268979,-0.414616 2.186161,-1.18103 0.778978,-0.615643 1.231287,-1.39462 0.452309,-0.778977 0.452309,-1.470005 0,-0.6659 -0.414617,-1.067953 -0.414617,-0.414616 -1.105644,-0.414616 -0.439746,0 -0.791542,0.201027 -0.351795,0.201025 -0.778978,0.703591 -0.452309,0.665899 -0.980002,1.093081 -0.515131,0.427181 -1.118209,0.640772 -0.590516,0.201026 -1.281543,0.201026 -1.84693,0 -2.839498,-1.281543 -0.980002,-1.294108 -0.980002,-3.706424 v -1.796672 q 0,-2.324368 0.992567,-3.580783 0.992567,-1.268978 2.826933,-1.268978 0.691027,0 1.256415,0.21359 0.565386,0.201027 1.067951,0.640772 0.51513,0.427181 0.992569,1.105645 0.42718,0.502566 0.791541,0.703593 0.376923,0.201026 0.841798,0.201026 0.6659,0 1.080516,-0.402053 0.42718,-0.414617 0.42718,-1.080517 0,-0.590515 -0.364359,-1.294106 -0.36436,-0.703593 -0.992568,-1.319236 -0.917183,-0.9046189 -2.286674,-1.3820564 -1.369492,-0.4900018 -3.02796,-0.4900018 -3.442576,0 -5.352327,2.0730842 -1.897186,2.06052 -1.897186,5.729251 z m 19.976994,-6.068484 q -1.859494,0 -3.279242,0.741285 -1.407185,0.741285 -2.198726,2.135905 -0.778977,1.382057 -0.778977,3.329499 v 1.482569 q 0,1.9977 0.778977,3.39232 0.791541,1.39462 2.198726,2.135905 1.419748,0.72872 3.279242,0.72872 1.84693,0 3.254114,-0.72872 1.407184,-0.741285 2.186161,-2.135905 0.791542,-1.407185 0.791542,-3.404884 v -1.495134 q 0,-1.922313 -0.791542,-3.30437 -0.778977,-1.39462 -2.186161,-2.135905 -1.407184,-0.741285 -3.254114,-0.741285 z m -0.01256,2.713855 q 0.81667,0 1.394619,0.427182 0.577952,0.414617 0.892055,1.206158 0.314104,0.791542 0.314104,1.897186 v 1.444877 q 0,1.105644 -0.314104,1.90975 -0.314103,0.791542 -0.892055,1.218722 -0.577949,0.414618 -1.394619,0.414618 -1.206159,0 -1.909751,-0.942312 -0.691029,-0.942311 -0.691029,-2.600778 V 18.60308 q 0,-1.105644 0.314103,-1.897186 0.314104,-0.791541 0.892054,-1.206158 0.590515,-0.427182 1.39462,-0.427182 z m 25.90727,9.121572 v -7.488232 q 0,-1.985136 -1.143337,-3.115908 -1.130773,-1.143337 -3.141037,-1.143337 -0.954875,0 -1.771545,0.314102 -0.804105,0.30154 -1.382056,0.866927 -0.565386,0.565387 -0.841798,1.344364 H 65.08184 q -0.213591,-0.791541 -0.728721,-1.356928 -0.502566,-0.565386 -1.256414,-0.866926 -0.741285,-0.301539 -1.683596,-0.301539 -0.892054,0 -1.645904,0.301539 -0.753848,0.30154 -1.268977,0.854362 -0.515131,0.540258 -0.741286,1.281542 h -0.175897 v -0.540257 q -0.03769,-0.854362 -0.490001,-1.3318 -0.452309,-0.477437 -1.218722,-0.477437 -0.804105,0 -1.268979,0.51513 -0.464874,0.502566 -0.464874,1.382055 v 9.762343 q 0,1.947442 1.771545,1.947442 1.758981,0 1.758981,-1.947442 V 17.93718 q 0,-0.791541 0.276411,-1.369491 0.288976,-0.590516 0.791541,-0.904618 0.51513,-0.314104 1.181029,-0.314104 1.030261,0 1.620775,0.6659 0.590515,0.653335 0.590515,1.821799 v 6.35746 q 0,1.947442 1.708725,1.947442 1.708723,0 1.708723,-1.947442 v -6.244381 q 0,-0.791541 0.276412,-1.369493 0.288975,-0.590514 0.804106,-0.904618 0.51513,-0.326667 1.193593,-0.326667 1.03026,0 1.608211,0.640771 0.577951,0.628208 0.577951,1.796673 v 6.407715 q 0,1.947442 1.758981,1.947442 1.771544,0 1.771544,-1.947442 z m 20.215711,0 v -7.488232 q 0,-1.985136 -1.143337,-3.115908 -1.130773,-1.143337 -3.141037,-1.143337 -0.954875,0 -1.771543,0.314102 -0.804106,0.30154 -1.382057,0.866927 -0.565387,0.565387 -0.841798,1.344364 h -0.175899 q -0.213589,-0.791541 -0.728719,-1.356928 -0.502566,-0.565386 -1.256415,-0.866926 -0.741284,-0.301539 -1.683596,-0.301539 -0.892054,0 -1.645903,0.301539 -0.753849,0.30154 -1.26898,0.854362 -0.515129,0.540258 -0.741283,1.281542 h -0.175897 v -0.540257 q -0.0377,-0.854362 -0.490002,-1.3318 -0.452309,-0.477437 -1.218722,-0.477437 -0.804106,0 -1.268979,0.51513 -0.464874,0.502566 -0.464874,1.382055 v 9.762343 q 0,1.947442 1.771545,1.947442 1.75898,0 1.75898,-1.947442 V 17.93718 q 0,-0.791541 0.276412,-1.369491 0.288976,-0.590516 0.791541,-0.904618 0.51513,-0.314104 1.18103,-0.314104 1.030261,0 1.620775,0.6659 0.590514,0.653335 0.590514,1.821799 v 6.35746 q 0,1.947442 1.708724,1.947442 1.708725,0 1.708725,-1.947442 v -6.244381 q 0,-0.791541 0.276411,-1.369493 0.288975,-0.590514 0.804105,-0.904618 0.51513,-0.326667 1.193594,-0.326667 1.03026,0 1.608211,0.640771 0.577951,0.628208 0.577951,1.796673 v 6.407715 q 0,1.947442 1.75898,1.947442 1.771544,0 1.771543,-1.947442 z m 3.668731,-2.299239 q 0,-0.791542 0.552823,-1.231287 0.552822,-0.439745 1.52026,-0.439745 h 2.412309 v 1.356928 q 0,0.590515 -0.32666,1.067952 -0.31411,0.477437 -0.86693,0.75385 -0.54026,0.27641 -1.218719,0.27641 -0.917181,0 -1.495132,-0.490001 -0.577951,-0.502566 -0.577951,-1.294107 z m 4.460262,2.437444 q 0.0125,0 0.088,0 0.0753,0 0.088,0 v 0.402053 q 0.088,0.6659 0.52768,1.042823 0.43975,0.364361 1.14334,0.364361 0.81668,0 1.25641,-0.490002 0.45231,-0.490001 0.45231,-1.394619 v -7.161564 q 0,-2.223855 -1.44487,-3.430013 -1.44488,-1.218721 -4.108475,-1.218721 -1.118207,0 -1.985132,0.188462 -0.866926,0.175897 -1.507698,0.502566 -0.892055,0.439744 -1.319236,1.017696 -0.414616,0.565385 -0.414616,1.155901 0,0.540259 0.326668,0.892054 0.339232,0.339232 0.917181,0.339232 0.427182,0 0.728722,-0.10051 0.314104,-0.113077 0.603078,-0.326667 0.552823,-0.464874 1.118211,-0.728722 0.565385,-0.27641 1.29411,-0.27641 1.093077,0 1.671027,0.502566 0.59051,0.490001 0.59051,1.444876 v 1.055389 h -3.103338 q -2.286675,0.01256 -3.593347,1.080516 -1.294107,1.067953 -1.294107,2.927447 0,1.821801 1.206158,2.94001 1.206158,1.118208 3.166165,1.118208 0.804105,0 1.495131,-0.21359 0.703588,-0.21359 1.231288,-0.628207 0.54026,-0.414617 0.86691,-1.005132 z m 16.28314,-0.125641 v -7.098743 q 0,-2.223855 -1.16846,-3.442577 -1.15591,-1.218721 -3.27925,-1.218721 -0.96744,0 -1.77155,0.314102 -0.8041,0.314104 -1.36949,0.879491 -0.56539,0.565388 -0.82923,1.356929 h -0.17589 v -0.716157 q -0.0628,-1.746416 -1.70873,-1.746416 -0.80411,0 -1.26898,0.502566 -0.46487,0.502566 -0.46487,1.382055 v 9.774907 q 0,0.929746 0.45231,1.444876 0.46487,0.502566 1.31923,0.502566 1.75898,0 1.75898,-1.947442 v -5.60361 q 0,-0.992568 0.32667,-1.69616 0.32666,-0.716156 0.92974,-1.09308 0.60308,-0.389489 1.40719,-0.389489 1.09308,0 1.69616,0.691028 0.60308,0.691028 0.60308,1.947442 v 6.143869 q 0,1.947442 1.77155,1.947442 1.77154,0 1.77154,-1.934878 z m 3.90745,-4.246682 v -1.281543 q 0,-1.080517 0.30154,-1.834365 0.3141,-0.766414 0.89206,-1.181029 0.59051,-0.414618 1.40718,-0.414618 0.81666,0 1.41974,0.402053 0.61565,0.402052 0.95489,1.118209 0.35179,0.703593 0.35179,1.658468 v 1.645903 q 0,1.030259 -0.33923,1.771544 -0.32668,0.741285 -0.92975,1.143337 -0.59052,0.402053 -1.41975,0.402053 -0.82924,0 -1.41975,-0.402053 -0.59052,-0.414616 -0.90462,-1.18103 -0.3141,-0.766412 -0.3141,-1.846929 z m 5.20156,3.920014 h 0.1759 v 0.552823 q 0.0628,0.816669 0.51513,1.268978 0.4523,0.439745 1.21872,0.439745 1.74641,0 1.74641,-1.947442 V 9.8081777 q 0,-1.9474428 -1.77154,-1.9474428 -1.75898,0 -1.75898,1.9474428 v 4.8371963 h -0.1759 q -0.25128,-0.678464 -0.80411,-1.168466 -0.54025,-0.502566 -1.30667,-0.766413 -0.76641,-0.263846 -1.69616,-0.263846 -1.53283,0 -2.65104,0.716156 -1.1182,0.716156 -1.73384,2.035392 -0.60308,1.319236 -0.60308,3.1536 v 1.922315 q 0,1.821802 0.60308,3.153601 0.60308,1.319235 1.70873,2.035391 1.11821,0.716156 2.65102,0.716156 0.7036,0 1.3318,-0.163333 0.64077,-0.163334 1.15591,-0.464873 0.51512,-0.30154 0.86693,-0.728722 0.36435,-0.42718 0.52769,-0.94231 z m 4.07078,-3.718988 q 0,2.87719 1.72129,4.510529 1.73385,1.633339 4.72412,1.633339 1.29411,0 2.36207,-0.301539 1.08051,-0.30154 1.7464,-0.841798 0.50257,-0.339233 0.77897,-0.766413 0.27643,-0.427182 0.27643,-0.904619 0,-0.577951 -0.33924,-0.917182 -0.32667,-0.339232 -0.87949,-0.339232 -0.41461,0 -0.67846,0.163334 -0.26386,0.15077 -0.74129,0.490001 -0.21359,0.175898 -0.46487,0.30154 -0.23872,0.125641 -0.51514,0.226154 -0.27641,0.08795 -0.60307,0.138207 -0.32667,0.0377 -0.70359,0.0377 -1.44489,0 -2.26156,-0.804105 -0.8041,-0.804105 -0.81667,-2.123341 v -0.552823 h 6.59619 q 0.99257,0 1.38205,-0.439744 0.38949,-0.452311 0.38949,-1.583084 0,-1.658467 -0.75384,-2.952574 -0.75386,-1.294107 -2.0731,-2.035392 -1.31923,-0.741285 -3.05308,-0.741285 -1.8218,0 -3.1913,0.778978 -1.36949,0.766414 -2.1359,2.148469 -0.76641,1.382057 -0.76641,3.241551 z m 3.6059,-2.211289 v -0.0377 q 0,-1.281543 0.69103,-2.06052 0.69104,-0.791541 1.8595,-0.791541 1.11821,0 1.7841,0.778976 0.66592,0.778978 0.66592,2.073085 v 0.0377 z m 12.22493,6.244381 v -5.666431 q 0,-0.992568 0.30154,-1.658467 0.3141,-0.6659 0.92974,-1.017695 0.6282,-0.351797 1.54539,-0.364361 0.41462,-0.01256 0.72873,-0.10051 0.3141,-0.08795 0.52769,-0.251282 0.23871,-0.188462 0.35179,-0.464874 0.12565,-0.276411 0.12565,-0.665899 0,-0.753849 -0.47744,-1.168466 -0.43975,-0.389488 -1.21873,-0.389488 -0.6282,0 -1.1559,0.238719 -0.5277,0.226153 -0.92975,0.691028 -0.40205,0.452309 -0.6659,1.118209 h -0.15076 v -0.263848 q -0.0503,-0.829233 -0.49002,-1.256415 -0.42716,-0.439744 -1.20615,-0.439744 -0.84179,0 -1.29411,0.51513 -0.4523,0.502566 -0.4523,1.432312 v 9.712086 q 0,0.917182 0.42719,1.432312 0.43973,0.51513 1.30666,0.51513 0.86692,0 1.3318,-0.51513 0.46488,-0.51513 0.46488,-1.432312 z"
     id="text2"
     aria-label="QACommander" />
</svg>
